<svg width="169" height="118" viewBox="0 0 169 118" fill="none" xmlns="http://www.w3.org/2000/svg">
<g filter="url(#filter0_dddd_219_217)">
<path d="M72.9669 28.0741C71.3484 28.8659 70.0523 29.4053 68.4466 30.3302C63.0918 33.4699 58.5765 37.8589 55.2863 43.1225C52.6549 47.2483 50.5659 51.696 49.071 56.3557C48.4154 58.3744 48.0338 60.5941 47.663 62.6838C47.4445 63.9144 47.1448 65.1382 46.9669 66.3748C46.4325 70.0886 46.1167 75.1452 46.9389 78.7868C47.4808 81.1866 48.2471 83.8324 50.4575 85.2092C51.839 86.0696 53.5073 86.4693 55.1062 86.0977C57.5147 85.5378 59.1869 83.8588 60.0278 81.5646C60.5861 80.0413 61.0217 78.4806 61.148 76.8587C61.448 73.0071 60.4449 69.4173 59.6717 65.6937C59.1465 63.1645 58.7687 60.6659 58.7014 58.0816C58.6662 56.7312 58.6706 55.3541 59.0047 54.0365C59.3431 52.7014 60.0203 51.369 60.7476 50.2077C62.6144 47.2268 65.9242 45.2026 69.295 44.4275C71.8242 43.8461 74.7891 44.12 77.113 45.3012C78.2132 45.8604 79.2835 46.5039 80.1793 47.3609C82.3129 49.4021 83.9899 52.7696 85.0317 55.5311C85.8793 57.7773 87.7972 66.6902 89.4611 67.6793C89.7821 67.8701 90.2071 67.9669 90.5715 67.8545C91.4264 67.5906 92.2687 64.935 92.7022 64.1153C95.0516 59.6735 97.6287 55.4272 101.155 51.8048C102.08 50.855 103.137 49.9496 104.179 49.135C104.835 48.6228 107.597 46.8961 107.778 46.3896C108.446 44.5159 108.572 41.5248 108.834 39.4854C109.074 37.6111 109.5 35.765 109.802 33.9012C110.686 28.4302 111.111 24.6704 113.916 19.6813C115.966 16.0074 119.091 13.0489 122.871 11.2032C129.8 7.89743 136.534 8.5726 143.699 10.4575C147.87 11.5548 152.071 12.2766 156.388 11.7576C156.685 11.7219 157.067 11.6378 157.355 11.5483C159.181 10.679 161.284 10.0332 161.824 12.7216C162.733 17.2468 160.674 20.6958 156.142 21.7075C155.761 21.6293 155.49 21.5568 155.102 21.6073C152.852 21.8999 150.693 21.6957 148.458 21.4523C148.334 21.4389 148.101 21.5525 147.992 21.6124C146.504 21.3283 145.077 21.0551 143.608 20.6331C139.387 19.4219 135.112 17.9294 130.67 18.9703C129.788 19.177 128.681 19.7192 127.964 20.2508C122.101 24.5936 122.134 33.151 120.72 39.6559C120.542 40.4773 120.458 41.2767 120.167 42.0711C122.595 41.7987 125.731 41.7848 128.171 41.7782L137.028 41.7747C139.643 41.7761 142.29 41.6634 144.883 41.8237C148.079 42.0212 149.126 44.9463 148.767 47.6929C148.123 52.6382 142.026 51.748 138.469 51.7301C135.117 51.7122 131.766 51.7152 128.416 51.7391C126.591 51.7489 120.313 51.7121 118.922 52.353C118.804 54.0791 118.333 56.3147 118.049 58.0377L116.69 66.751L115.238 76.3172C114.777 79.1638 114.733 82.6412 111.964 84.2748C109.441 85.762 105.812 85.5402 103.835 83.2071C102.806 81.9936 102.519 80.5177 102.758 78.9982C103.079 76.1941 103.611 73.4656 103.966 70.6724C104.083 69.752 104.571 68.0828 104.613 67.2571C104.662 66.2964 105.588 62.3179 105.471 61.6878C103.734 63.7117 102.54 66.4943 101.281 68.8377C99.3513 72.4275 97.0727 76.243 92.9089 77.4756C91.4781 77.8991 89.9917 77.9052 88.5242 77.7019C77.4128 76.1627 77.4553 56.296 73.1148 54.0012C72.3444 53.5938 71.3319 53.5524 70.5127 53.829C69.1077 54.3033 68.1665 55.8381 68.0997 57.2782C68.0305 58.7722 68.9891 62.1394 69.3339 63.7489C70.1244 67.4395 70.9291 72.6206 70.8361 76.3877C70.7555 79.6511 69.9692 83.5769 68.4894 86.4924C66.4693 90.4726 63.1324 93.9104 58.8137 95.3061C56.4611 96.0409 53.9674 96.2052 51.5386 95.7852C46.4517 94.9516 44.2501 93.211 40.8987 89.5351C37.4805 85.7858 33.682 82.1097 28.9949 80.038C26.555 78.9596 24.0611 78.3472 21.4086 78.0563C18.2579 77.6995 15.5315 77.8281 12.6685 76.2169C5.46829 72.165 6.01116 65.2984 6.01798 58.2861L6.02236 46.0867L6.01278 36.6495C6.00961 32.3564 5.74769 29.3009 7.75886 25.2644C13.7013 13.3375 28.6484 16.1231 38.8074 19.9065C42.8623 21.4167 46.2284 23.5775 49.7069 26.1558C50.9259 27.0593 52.9528 28.7896 54.201 29.4442C55.1424 28.7093 56.0874 27.6079 57.0367 26.8055C59.2456 24.9382 61.6828 23.2797 64.1097 21.7096C65.1981 21.0054 66.4783 20.3837 67.6456 19.8171C68.3021 19.4984 69.0943 19.2434 69.6956 18.8635L69.7722 18.8142C69.4419 17.0628 68.4687 14.1972 71.334 14.511C73.8734 14.7893 76.2223 15.5705 78.6801 16.2029C80.3681 16.6373 82.1342 16.8842 83.7849 17.4777C85.1116 17.9402 85.3508 18.6138 84.8132 19.9405C83.6745 22.0769 82.0005 23.9653 80.5686 25.9162C79.5133 27.3543 78.4233 28.8577 77.2419 30.1993C74.5203 32.9624 73.7213 30.2567 72.9669 28.0741ZM36.7679 72.8929C36.8648 70.8608 37.1031 68.9167 37.2049 66.9683C37.3142 65.4962 37.4006 63.7934 37.6427 62.3343C38.8215 55.2354 41.2308 48.9761 44.492 42.6064C45.4804 40.676 46.8997 38.7326 47.8503 36.9105C46.1526 35.7352 44.394 33.8676 42.7348 32.7706C38.0687 29.6858 32.2842 27.2992 26.7052 26.5967C24.6794 26.3415 22.6078 26.3506 20.5984 26.4129C19.0796 26.7645 17.5481 27.5812 16.7825 28.9504C15.2842 31.6303 15.6818 36.4257 15.6804 39.3864L15.6823 51.1665L15.677 59.1322C15.6626 70.0057 16.7781 67.6097 26.4477 69.1173C29.5638 69.6031 33.943 71.4424 36.7679 72.8929Z" fill="#FCFCFD"/>
<path d="M147.992 21.6124C148.101 21.5525 148.334 21.4389 148.458 21.4523C150.693 21.6957 152.852 21.8999 155.102 21.6073C155.49 21.5568 155.761 21.6293 156.142 21.7075C152.233 22.172 151.876 22.0539 147.992 21.6124Z" fill="#FCFCFD" fill-opacity="0.968627"/>
</g>
<defs>
<filter id="filter0_dddd_219_217" x="-5.44945" y="-1" width="179.969" height="122" filterUnits="userSpaceOnUse" color-interpolation-filters="sRGB">
<feFlood flood-opacity="0" result="BackgroundImageFix"/>
<feColorMatrix in="SourceAlpha" type="matrix" values="0 0 0 0 0 0 0 0 0 0 0 0 0 0 0 0 0 0 127 0" result="hardAlpha"/>
<feOffset dy="1"/>
<feGaussianBlur stdDeviation="1"/>
<feColorMatrix type="matrix" values="0 0 0 0 0 0 0 0 0 0 0 0 0 0 0 0 0 0 0.25 0"/>
<feBlend mode="normal" in2="BackgroundImageFix" result="effect1_dropShadow_219_217"/>
<feColorMatrix in="SourceAlpha" type="matrix" values="0 0 0 0 0 0 0 0 0 0 0 0 0 0 0 0 0 0 127 0" result="hardAlpha"/>
<feOffset dy="4"/>
<feGaussianBlur stdDeviation="2"/>
<feColorMatrix type="matrix" values="0 0 0 0 0 0 0 0 0 0 0 0 0 0 0 0 0 0 0.21 0"/>
<feBlend mode="normal" in2="effect1_dropShadow_219_217" result="effect2_dropShadow_219_217"/>
<feColorMatrix in="SourceAlpha" type="matrix" values="0 0 0 0 0 0 0 0 0 0 0 0 0 0 0 0 0 0 127 0" result="hardAlpha"/>
<feOffset dy="9"/>
<feGaussianBlur stdDeviation="2.5"/>
<feColorMatrix type="matrix" values="0 0 0 0 0 0 0 0 0 0 0 0 0 0 0 0 0 0 0.13 0"/>
<feBlend mode="normal" in2="effect2_dropShadow_219_217" result="effect3_dropShadow_219_217"/>
<feColorMatrix in="SourceAlpha" type="matrix" values="0 0 0 0 0 0 0 0 0 0 0 0 0 0 0 0 0 0 127 0" result="hardAlpha"/>
<feOffset dy="15"/>
<feGaussianBlur stdDeviation="3"/>
<feColorMatrix type="matrix" values="0 0 0 0 0 0 0 0 0 0 0 0 0 0 0 0 0 0 0.04 0"/>
<feBlend mode="normal" in2="effect3_dropShadow_219_217" result="effect4_dropShadow_219_217"/>
<feBlend mode="normal" in="SourceGraphic" in2="effect4_dropShadow_219_217" result="shape"/>
</filter>
</defs>
</svg>
