<?xml version="1.0" encoding="utf-8"?>
<!-- Generator: Adobe Illustrator 21.0.0, SVG Export Plug-In . SVG Version: 6.00 Build 0)  -->
<svg version="1.1" id="Layer_1" xmlns="http://www.w3.org/2000/svg" xmlns:xlink="http://www.w3.org/1999/xlink" x="0px" y="0px"
	 viewBox="0 0 512 512" style="enable-background:new 0 0 512 512;" xml:space="preserve">
<g>
	<path d="M498.1,24.5c-17.2,28.3-46.2,104.7-178.2,141.4v-18.7c-16.5,1.9-22.5-18.8-28.3-21.3c-13.1,13.5-20.9,25.9-35.2,35.2
		c-17.2,11.3-36.9,15.1-41.1,30.4c4.9-1.9,21.3-10.7,65.6-10.7c28.3,0,27.9,3.1,43.2,21.9c5.2-1.4,5.9-4.1,7.5-7.5
		c-8.1-14.5-12.1-15.4-11.2-21.3C365.9,170.1,477.5,135,498.1,24.5z M273.5,188.3c-32.4,0-41.7,3.7-42.7,4.8
		c-2,7.5,7.1,23.9-10.1,44.8c5.8,1.6,11.6,3.1,17.6,4.8c-0.7,1.3-2.7,4.7-2.7,9.6c0,18.3,38.9,1.7,38.9,31.5
		c0,9.6-26.1,53.4-51.2,53.4c-23.9-20.5-50.2-47.3-47-59.2c13.9-3.3,45-9.5,48.6-10.7c4.3-1.5,9.1-6.4,7.5-12.3s-7.1-9.9-19.7-6.4
		c-3.3,0.9-36.3,8-36.3,8c-10.1-20.7-15.9-10.1-24-8.5c-11.7,2.3-23.9,5.2-17.1,17.6c-3.8,0.9-121.4,26.8-123.2,27.2
		c-3.4,0.7-14.1,4.7-11.7,13.3c2.3,8.2,8.9,8.2,10.7,8c7-0.9,131.7-29,133.9-29.3c2.1,6.1,11.1,8.3,21.9,24
		c3.1,4.4,43.3,61.9,53.9,61.9c39,0,76.8-44.8,76.8-44.8c-0.7,15.3-31.5,41.1-31.5,41.1c0,6.9,1.3,33.1,1.6,36.8
		c0.9,0,9.5,2.7,32.5,2.7s38.4-5.9,38.4-5.9s8.5-31.7,8.5-51.8c0-49.5-13.5-52.4-35.2-71.5c0,0,2.8-1.9,6.4-1.6
		c77.4,5.1,45.8,149.6,99.2,209.1c1.7-0.5,74.7-29.7,94.4-42.7c-95.1-77-97.2-178.3-202.7-178.2c0-25.1,25.6,4.8,30.9-32.5
		c-4.4,2.1-8.3,3.9-12.3,5.9C311.1,194.4,315.3,188.3,273.5,188.3z M203.1,237.4c-4.1,0.1-7.7,1.3-11.7,2.1
		c-1.7,0.4-3.3,1.1-5.3,1.6c0.9,1.6,4.7,8.6,5.3,9.6c8.2-1.7,16.1-3.5,24.5-5.3C212.5,243.9,206.2,237.4,203.1,237.4z M216.9,271.6
		c-4.2,1.1-8.1,2.2-12.3,3.2c0.7,1.3,19.3,49,21.9,55.5c6.5-4.2,12.9-8.2,19.2-12.3C242,312.7,217.8,272.4,216.9,271.6z
		 M338.1,408.7c-6.1,0.3-53.1,6.1-56.6,7.5l2.1,12.8c6.3-0.9,47.3-9,57.1-12.3C340.3,415.2,340.5,410.4,338.1,408.7z M267.6,411.9
		c-1.7,5.8-0.7,20.1,0,24c1.7-0.3,8.1-1.9,10.1-2.7c-0.9-7.1-1.7-14.2-2.7-21.3H267.6z M343.4,425.2c-44.9,1.9-73.7,16.6-75.8,18.7
		c-0.7,3.3,5.8,36.6,5.9,41.1c60.9,8.7,94.8-8.3,96.6-9.1C367.9,468.9,345.4,425.2,343.4,425.2z"/>
</g>
</svg>
